<?xml version="1.0" encoding="UTF-8"?>
<!-- Generator: visioncortex VTracer 0.6.12 -->
<svg version="1.1" xmlns="http://www.w3.org/2000/svg" width="500" height="500">
<path d="M0 0 C165 0 330 0 500 0 C500 165 500 330 500 500 C335 500 170 500 0 500 C0 335 0 170 0 0 Z M243.625 27.625 C242 30 242 30 241.562 33.125 C241.377 34.074 241.191 35.023 241 36 C239.363 36.736 237.687 37.387 236 38 C233.767 39.177 231.568 40.378 229.375 41.625 C228.697 42.008 228.019 42.392 227.32 42.787 C219.953 46.979 212.675 51.322 205.392 55.657 C195.622 61.47 185.797 67.176 175.939 72.84 C169.738 76.407 163.576 80.026 157.459 83.736 C152.439 86.767 147.349 89.668 142.25 92.562 C132.852 97.901 123.549 103.39 114.259 108.914 C105.546 114.092 96.804 119.217 88.04 124.308 C87.128 124.838 86.217 125.368 85.277 125.914 C84.4 126.421 83.523 126.928 82.619 127.451 C80.824 128.513 79.046 129.606 77.285 130.725 C76.415 131.275 75.545 131.824 74.648 132.391 C73.881 132.889 73.113 133.386 72.322 133.899 C68.897 135.523 65.908 135.2 62.203 134.973 C60 135 60 135 56.938 136.562 C54.357 139.809 53.927 141.866 54 146 C54.651 146.73 55.301 147.461 55.971 148.213 C58.61 151.838 58.563 154.841 58.519 159.156 C58.526 159.973 58.534 160.79 58.542 161.632 C58.562 164.366 58.554 167.1 58.546 169.835 C58.555 171.797 58.565 173.758 58.577 175.719 C58.605 181.043 58.608 186.367 58.608 191.691 C58.611 197.255 58.636 202.819 58.659 208.383 C58.7 218.919 58.72 229.455 58.733 239.991 C58.749 251.986 58.788 263.981 58.828 275.976 C58.91 300.651 58.965 325.325 59 350 C58.01 350.33 57.02 350.66 56 351 C53.658 354.513 53.504 355.865 54 360 C55.958 363.388 57.107 364.728 60.875 365.875 C64 366 64 366 66.754 365.266 C71.107 364.909 73.54 366.596 77.062 368.875 C78.575 369.808 80.088 370.738 81.602 371.668 C82.449 372.194 83.296 372.721 84.169 373.263 C89.093 376.284 94.088 379.187 99.077 382.1 C100.95 383.195 102.823 384.292 104.695 385.39 C113.026 390.275 121.38 395.119 129.75 399.938 C141.688 406.811 153.573 413.765 165.406 420.816 C176.124 427.198 186.842 433.556 197.779 439.557 C203.42 442.656 208.985 445.87 214.507 449.177 C218.354 451.475 222.231 453.679 226.184 455.793 C226.616 456.029 226.616 456.029 228.805 457.225 C230.474 458.134 232.154 459.025 233.845 459.894 C237.933 462.148 240.293 463.732 241.926 468.211 C242.28 469.461 242.635 470.712 243 472 C245.309 474.547 246.548 474.923 249.938 475.5 C254.11 474.819 255.466 473.33 258 470 C258.165 468.948 258.33 467.896 258.5 466.812 C258.665 465.884 258.83 464.956 259 464 C261.253 462.983 261.253 462.983 264 462 C265.504 461.183 266.989 460.333 268.457 459.453 C269.309 458.945 270.162 458.438 271.04 457.915 C271.497 457.64 271.497 457.64 273.812 456.25 C275.803 455.065 277.794 453.88 279.785 452.695 C280.813 452.083 281.84 451.471 282.899 450.841 C287.835 447.911 292.791 445.015 297.75 442.125 C298.246 441.836 298.246 441.836 300.758 440.372 C314.634 432.292 328.549 424.28 342.473 416.281 C354.612 409.302 366.692 402.234 378.723 395.069 C388.174 389.455 397.705 383.987 407.275 378.578 C408.357 377.965 409.44 377.351 410.555 376.719 C411.612 376.12 412.669 375.521 413.759 374.903 C416.051 373.557 418.286 372.189 420.515 370.745 C421.094 370.373 421.674 370.001 422.271 369.618 C423.882 368.577 425.481 367.52 427.081 366.462 C431.034 364.482 433.69 364.885 437.902 365.734 C440 366 440 366 443.062 364.5 C445.596 361.231 446 359.121 446 355 C444.688 352.062 444.688 352.062 443 350 C442.34 350 441.68 350 441 350 C441.06 324.105 441.138 298.211 441.236 272.316 C441.281 260.294 441.32 248.271 441.346 236.248 C441.369 225.772 441.403 215.296 441.449 204.82 C441.473 199.27 441.491 193.721 441.498 188.171 C441.504 182.952 441.524 177.733 441.554 172.513 C441.563 170.594 441.567 168.675 441.565 166.755 C441.563 164.142 441.58 161.529 441.601 158.916 C441.599 158.533 441.599 158.533 441.587 156.596 C441.657 151.4 441.657 151.4 443.501 149.251 C443.996 148.838 444.491 148.425 445 148 C445.386 143.949 445.557 141.277 443.938 137.562 C440.423 134.728 436.088 135.086 431.73 134.742 C427.409 133.882 424.236 132.121 420.562 129.812 C419.055 128.896 417.547 127.981 416.039 127.066 C415.23 126.572 414.421 126.077 413.587 125.567 C408.907 122.732 404.169 119.998 399.438 117.25 C397.371 116.046 395.305 114.841 393.238 113.637 C392.204 113.034 391.17 112.431 390.104 111.81 C387.083 110.048 384.063 108.284 381.043 106.52 C370.527 100.376 359.994 94.262 349.438 88.188 C342.142 83.988 334.868 79.763 327.666 75.403 C322.104 72.043 316.491 68.77 310.875 65.5 C302.086 60.383 293.302 55.257 284.528 50.115 C283.278 49.383 282.028 48.65 280.777 47.918 C277.9 46.233 275.024 44.545 272.152 42.851 C270.102 41.647 268.044 40.456 265.977 39.28 C265.525 39.019 265.525 39.019 263.234 37.699 C262.445 37.252 261.656 36.804 260.843 36.343 C258.148 34.379 257.704 32.17 257 29 C254.55 26.278 253.174 26.022 249.5 25.562 C246 26 246 26 243.625 27.625 Z " fill="#000000" transform="translate(0,0)"/>
<path d="M0 0 C7.171 3.468 14.078 7.268 20.938 11.312 C21.971 11.919 23.005 12.525 24.07 13.149 C32.92 18.346 41.746 23.583 50.571 28.821 C62.538 35.922 74.542 42.959 86.553 49.983 C89.822 51.896 93.089 53.811 96.355 55.727 C106.069 61.416 115.812 67.045 125.625 72.562 C133.539 77.017 141.417 81.529 149.25 86.125 C150.185 86.67 151.121 87.214 152.084 87.776 C152.517 88.031 152.517 88.031 154.703 89.32 C155.463 89.766 156.222 90.213 157.005 90.672 C158.932 91.955 160.433 93.305 162 95 C148.107 93.531 134.559 90.978 120.938 87.938 C120.137 87.76 119.336 87.583 118.511 87.4 C116.203 86.886 113.896 86.365 111.59 85.84 C110.898 85.685 110.206 85.529 109.493 85.37 C101.885 83.609 101.885 83.609 99 82 C97.486 79.573 97.486 79.573 96.246 76.547 C95.784 75.452 95.322 74.358 94.846 73.23 C94.381 72.082 93.916 70.933 93.438 69.75 C87.731 55.952 87.731 55.952 84 51 C83.505 51.165 83.505 51.165 81 52 C82.124 58.29 83.295 64.56 84.633 70.809 C85 73 85 73 85 77 C78.34 75.394 71.999 72.941 65.688 70.312 C64.911 70.01 64.135 69.708 63.334 69.396 C57.312 66.81 54.967 63.721 52 58 C51.036 56.319 50.066 54.642 49.09 52.969 C48.581 52.083 48.071 51.197 47.547 50.284 C42.859 42.174 38.041 34.265 32.438 26.75 C32.194 26.42 32.194 26.42 30.959 24.748 C28.619 21.697 26.702 19.289 23 18 C21.692 21.922 22.629 23.902 24.449 27.586 C24.796 28.259 25.143 28.932 25.5 29.625 C26.743 32.065 27.895 34.49 29 37 C28.67 37.66 28.34 38.32 28 39 C0 9.586 0 9.586 0 0 Z " fill="#000000" transform="translate(261,44)"/>
<path d="M0 0 C0 7.903 -8.845 16.578 -13.5 22.688 C-14.033 23.388 -14.567 24.088 -15.116 24.809 C-18.895 29.707 -22.878 34.388 -27 39 C-27.33 38.34 -27.66 37.68 -28 37 C-26.587 33.711 -24.963 30.553 -23.348 27.359 C-21.974 23.936 -21.729 21.644 -22 18 C-23.32 18 -24.64 18 -26 18 C-26.278 18.586 -26.557 19.172 -26.844 19.776 C-27.932 21.869 -29.115 23.68 -30.504 25.582 C-30.993 26.259 -31.482 26.937 -31.986 27.634 C-32.506 28.353 -33.026 29.072 -33.562 29.812 C-37.543 35.383 -41.365 40.995 -44.875 46.875 C-45.244 47.489 -45.613 48.103 -45.993 48.735 C-47.626 51.497 -49.118 54.256 -50.465 57.168 C-54.236 65.269 -58.831 67.768 -67 71 C-68.079 71.485 -69.158 71.969 -70.27 72.469 C-78.93 76.313 -78.93 76.313 -84 76 C-82.667 68 -81.333 60 -80 52 C-81.32 51.01 -82.64 50.02 -84 49 C-83.734 48.85 -83.734 48.85 -82.39 48.089 C-70.753 41.496 -59.21 34.772 -47.758 27.863 C-42.728 24.83 -37.669 21.847 -32.602 18.876 C-28.459 16.447 -24.322 14.008 -20.191 11.559 C-19.694 11.264 -19.694 11.264 -17.175 9.771 C-15.219 8.612 -13.264 7.451 -11.309 6.289 C-10.417 5.761 -9.525 5.232 -8.605 4.688 C-7.813 4.217 -7.02 3.746 -6.204 3.262 C-4.167 2.096 -2.11 1.025 0 0 Z " fill="#000000" transform="translate(238,44)"/>
<path d="M0 0 C0.33 0 0.66 0 1 0 C1.099 4.626 1.172 9.252 1.22 13.879 C1.24 15.453 1.267 17.026 1.302 18.599 C1.35 20.863 1.373 23.126 1.391 25.391 C1.411 26.092 1.432 26.793 1.453 27.515 C1.455 30.88 1.36 32.59 -0.899 35.163 C-1.593 35.769 -2.286 36.375 -3 37 C-3.295 37.839 -3.591 38.677 -3.895 39.541 C-5.436 42.97 -7.35 43.675 -10.68 45.34 C-11.837 45.928 -12.995 46.517 -14.188 47.123 C-15.416 47.728 -16.646 48.333 -17.875 48.938 C-19.053 49.532 -20.231 50.127 -21.445 50.74 C-24.956 52.509 -28.477 54.256 -32 56 C-34.295 57.146 -36.589 58.293 -38.883 59.441 C-40.589 60.294 -42.294 61.147 -44 62 C-45 59 -45 59 -43.82 56.605 C-41.986 53.98 -40.046 51.666 -37.875 49.312 C-37.072 48.431 -36.269 47.549 -35.441 46.641 C-33.939 45.016 -32.428 43.399 -30.902 41.797 C-20.274 30.433 -11.359 17.416 -2.932 4.368 C-1.977 2.897 -0.992 1.446 0 0 Z " fill="#000000" transform="translate(246,45)"/>
<path d="M0 0 C2.374 2.938 4.69 5.893 6.883 8.969 C7.405 9.698 7.928 10.428 8.466 11.179 C9.013 11.945 9.561 12.711 10.125 13.5 C15.605 21.121 21.189 28.628 27 36 C27.782 37 28.565 38.001 29.371 39.031 C33.146 43.767 36.842 47.872 41.555 51.664 C43.854 53.789 44.964 56.085 46 59 C45.67 59.99 45.34 60.98 45 62 C35.783 57.775 26.668 53.397 17.688 48.688 C17.285 48.477 17.285 48.477 15.247 47.415 C5.279 42.142 5.279 42.142 3 35 C2.01 34.34 1.02 33.68 0 33 C-0.267 30.446 -0.348 28.137 -0.293 25.586 C-0.289 24.856 -0.284 24.127 -0.28 23.375 C-0.263 21.041 -0.226 18.708 -0.188 16.375 C-0.172 14.794 -0.159 13.214 -0.146 11.633 C-0.113 7.755 -0.062 3.878 0 0 Z " fill="#000000" transform="translate(253,45)"/>
<path d="M0 0 C0.574 0.373 1.149 0.746 1.74 1.13 C1.84 5.329 1.912 9.527 1.96 13.727 C1.98 15.155 2.008 16.583 2.042 18.01 C2.091 20.066 2.113 22.12 2.131 24.177 C2.152 25.412 2.173 26.648 2.195 27.922 C1.646 31.796 0.543 32.541 -2.26 35.13 C-2.563 36.13 -2.867 37.13 -3.179 38.16 C-4.567 41.975 -6.027 42.712 -9.545 44.645 C-10.625 45.252 -11.706 45.859 -12.819 46.484 C-13.975 47.11 -15.131 47.735 -16.322 48.38 C-17.507 49.037 -18.691 49.697 -19.874 50.359 C-22.231 51.676 -24.592 52.985 -26.957 54.289 C-32.068 57.137 -37.082 60.141 -42.094 63.16 C-45.4 65.127 -48.636 66.825 -52.26 68.13 C-54.114 57.429 -52.667 46.793 -51.26 36.13 C-51.182 35.406 -51.105 34.683 -51.026 33.938 C-50.511 29.489 -49.652 25.937 -47.26 22.13 C-42.995 19.014 -38.554 17.097 -33.673 15.141 C-29.28 13.3 -25.067 11.096 -20.822 8.942 C-20.414 8.74 -20.414 8.74 -18.351 7.717 C-17.559 7.323 -16.767 6.93 -15.951 6.524 C-15.564 6.332 -15.564 6.332 -13.604 5.359 C-10.403 3.681 -7.338 1.789 -4.283 -0.141 C-2.26 -0.87 -2.26 -0.87 0 0 Z " fill="#000000" transform="translate(245.259521484375,92.870361328125)"/>
<path d="M0 0 C4.986 1.986 9.636 4.508 14.363 7.039 C25.929 13.202 25.929 13.202 31.734 15.738 C32.511 16.08 33.288 16.421 34.089 16.773 C35.52 17.39 36.96 17.988 38.409 18.563 C41.99 20.114 43.453 21.241 45.398 24.672 C46.553 28.421 47.556 32.117 48.238 35.977 C48.366 36.687 48.493 37.397 48.624 38.129 C50.167 47.818 49.817 57.637 49.551 67.414 C45.327 67.414 42.439 65.331 38.863 63.289 C38.09 62.853 37.317 62.417 36.521 61.969 C33.858 60.461 31.204 58.939 28.551 57.414 C27.518 56.82 26.485 56.227 25.42 55.615 C22.169 53.741 18.921 51.861 15.676 49.977 C14.636 49.374 13.596 48.771 12.525 48.15 C11.546 47.578 10.567 47.007 9.559 46.418 C8.689 45.911 7.819 45.404 6.922 44.881 C1.594 41.585 -0.078 39.341 -2.449 33.414 C-3.109 32.754 -3.769 32.094 -4.449 31.414 C-4.676 28.341 -4.676 28.341 -4.645 24.438 C-4.642 23.752 -4.639 23.067 -4.636 22.361 C-4.625 20.17 -4.6 17.98 -4.574 15.789 C-4.564 14.305 -4.555 12.82 -4.547 11.336 C-4.525 7.695 -4.49 4.055 -4.449 0.414 C-2.449 -0.586 -2.449 -0.586 0 0 Z " fill="#000000" transform="translate(257.44921875,92.5859375)"/>
<path d="M0 0 C0.33 0.165 0.33 0.165 2 1 C1.682 1.66 1.365 2.32 1.038 3 C-0.414 6.02 -1.863 9.041 -3.312 12.062 C-3.812 13.101 -4.312 14.139 -4.826 15.209 C-8.986 23.887 -8.986 23.887 -10.73 28.121 C-12 31 -12 31 -14 33 C-18.175 34.367 -22.478 35.296 -26.75 36.312 C-27.389 36.466 -27.389 36.466 -30.62 37.24 C-40.251 39.507 -49.931 41.368 -59.688 43 C-60.987 43.22 -62.287 43.439 -63.626 43.665 C-72.738 45.131 -72.738 45.131 -75 44 C-63.802 37.188 -52.519 30.541 -41.125 24.062 C-30.462 17.999 -19.862 11.839 -9.316 5.574 C-8.937 5.35 -8.937 5.35 -7.016 4.212 C-5.334 3.201 -3.677 2.146 -2.027 1.082 C-1.693 0.903 -1.693 0.903 0 0 Z " fill="#000000" transform="translate(152,94)"/>
<path d="M0 0 C1.337 4.012 0.254 5.677 -1.188 9.625 C-3.206 15.354 -4.875 21.083 -6.25 27 C-6.413 27.693 -6.575 28.386 -6.743 29.1 C-8.695 37.688 -9.237 45.91 -9.312 54.688 C-9.342 55.795 -9.371 56.903 -9.4 58.045 C-9.552 77.967 1.511 91.041 14.649 104.65 C16.386 106.386 18.227 107.995 20.062 109.625 C24.12 113.534 24.979 118.623 26 124 C21.962 122.316 18.891 119.521 15.625 116.688 C14.513 115.733 13.401 114.778 12.289 113.824 C12.019 113.59 12.019 113.59 10.649 112.404 C9.531 111.452 8.396 110.517 7.249 109.6 C5.799 108.44 4.395 107.225 3 106 C3 105.34 3 104.68 3 104 C2.428 103.765 1.855 103.531 1.266 103.289 C-8.884 97.514 -15.651 82.611 -18.977 71.836 C-24.009 46.94 -12.227 21.027 0 0 Z " fill="#000000" transform="translate(197,94)"/>
<path d="M0 0 C3.34 2.77 4.995 6.496 6.875 10.312 C7.227 11.024 7.578 11.735 7.94 12.468 C11.178 19.152 13.804 25.896 16 33 C16.32 33.998 16.639 34.995 16.969 36.023 C20.748 49.635 21.224 66.116 15 79 C14.607 79.909 14.214 80.818 13.809 81.754 C6.533 96.325 -10.321 112.882 -25 120 C-25.062 114.897 -24.703 111.161 -21.043 107.402 C-19.774 106.23 -18.488 105.076 -17.188 103.938 C-11.703 98.808 -6.794 93.595 -2.312 87.562 C-1.833 86.925 -1.353 86.287 -0.858 85.631 C6.467 75.595 9.386 66.385 9.25 54 C9.241 53.074 9.232 52.147 9.223 51.193 C8.953 34.965 5.488 20.726 0.611 5.29 C0 3 0 3 0 0 Z " fill="#000000" transform="translate(303,97)"/>
<path d="M0 0 C-2.288 1.506 -4.58 3.005 -6.875 4.5 C-7.2 4.715 -7.2 4.715 -8.848 5.801 C-13.773 9 -13.773 9 -16 9 C-15.867 6.68 -15.867 6.68 -15 4 C-12.383 2.383 -12.383 2.383 -9.125 1.125 C-8.055 0.694 -6.985 0.264 -5.883 -0.18 C-3 -1 -3 -1 0 0 Z " fill="#000000" transform="translate(168,124)"/>
<path d="M0 0 C2.487 0.724 4.969 1.461 7.445 2.219 C9.312 2.79 11.186 3.339 13.062 3.875 C15 5 15 5 15.812 7.625 C15.874 8.409 15.936 9.192 16 10 C11.945 9.37 9.106 7.27 5.75 5 C4.672 4.278 3.595 3.556 2.484 2.812 C1.665 2.214 0.845 1.616 0 1 C0 0.67 0 0.34 0 0 Z " fill="#000000" transform="translate(332,123)"/>
<path d="M0 0 C19.07 10.07 19.07 10.07 24 15 C26.348 29.485 20.221 45.194 12.035 56.781 C4.572 65.787 -6.29 72.469 -17 77 C-17.66 76.67 -18.32 76.34 -19 76 C-18.432 75.406 -17.863 74.811 -17.277 74.199 C-1.811 57.597 3.736 41.983 3.158 19.745 C2.877 14.873 1.889 10.304 0.656 5.582 C0 3 0 3 0 0 Z " fill="#000000" transform="translate(324,126)"/>
<path d="M0 0 C8.139 12.209 7.992 31.971 5.234 45.855 C4.327 48.695 3.284 51.313 2 54 C1.711 54.705 1.423 55.41 1.125 56.137 C-7.583 75.923 -28.646 85.535 -47.562 93.188 C-67.365 100.857 -67.365 100.857 -77 102 C-69.92 94.463 -62.441 89.317 -52.812 85.562 C-39.481 80.085 -27.743 73.822 -17 64 C-16.429 63.484 -15.858 62.969 -15.27 62.438 C-0.255 46.98 0.388 25.532 0.105 5.414 C0.072 3.609 0.038 1.805 0 0 Z " fill="#000000" transform="translate(353,126)"/>
<path d="M0 0 C1.508 3.015 0.36 5.069 -0.438 8.312 C-4.035 24.76 -3.682 42.344 4.75 57.25 C8.129 62.456 12.04 67.23 16 72 C17.336 73.664 18.67 75.33 20 77 C4.544 72.823 -8.76 61.671 -16.906 48.094 C-21.729 38.861 -25.158 25.292 -23 15 C-19.009 10.912 -13.568 8.185 -8.688 5.25 C-7.852 4.743 -7.016 4.237 -6.154 3.715 C-4.105 2.473 -2.053 1.235 0 0 Z " fill="#000000" transform="translate(175,126)"/>
<path d="M0 0 C0.33 0 0.66 0 1 0 C1.009 0.638 1.019 1.276 1.028 1.933 C1.444 24.628 3.242 44.646 19.766 61.863 C30.023 71.673 42.662 77.517 55.625 82.875 C64.843 86.71 71.956 90.888 79 98 C79.66 98.66 80.32 99.32 81 100 C53.679 94.332 19.9 82.655 3.648 58.676 C-6.566 42.095 -6.244 24.333 -2 6 C-1.37 3.988 -0.717 1.983 0 0 Z " fill="#000000" transform="translate(145,129)"/>
<path d="M0 0 C0.513 0.111 0.513 0.111 3.107 0.671 C22.676 4.887 42.202 8.997 62 12 C62 12.66 62 13.32 62 14 C52.883 21.205 41.038 29.195 29.031 27.895 C23.58 26.286 19.499 23.382 15 20 C13.009 18.735 11.009 17.485 9 16.25 C3.081 12.568 3.081 12.568 1 10 C0.488 7.52 0.488 7.52 0.312 4.812 C0.247 3.911 0.181 3.01 0.113 2.082 C0.076 1.395 0.039 0.708 0 0 Z " fill="#000000" transform="translate(363,133)"/>
<path d="M0 0 C0.217 4.317 0.291 8.36 -2.473 11.871 C-4.876 13.802 -7.371 15.385 -10 17 C-11.308 17.883 -12.615 18.767 -13.922 19.652 C-27.862 28.826 -27.862 28.826 -36.242 28.215 C-45.561 25.202 -53.868 19.352 -62 14 C-61.67 13.34 -61.34 12.68 -61 12 C-58.178 11.317 -58.178 11.317 -54.379 10.703 C-52.965 10.467 -51.552 10.231 -50.138 9.995 C-49.391 9.873 -48.644 9.752 -47.874 9.627 C-32.745 7.161 -17.852 4.114 -2.961 0.456 C-1 0 -1 0 0 0 Z " fill="#000000" transform="translate(137,133)"/>
<path d="M0 0 C0 12.87 0 25.74 0 39 C-5 41 -5 41 -8 41 C-8.326 36.325 -7.706 33.833 -5 30 C-8.782 31.608 -12.134 33.134 -15.062 36.062 C-16.115 39.359 -15.804 41.112 -15.312 44.5 C-14.945 47.418 -14.945 47.418 -15 50 C-17.688 52.812 -17.688 52.812 -21 55 C-22.528 56.921 -23.726 58.894 -25 61 C-34.521 53.302 -47.996 41.058 -50.75 28.609 C-50.833 27.748 -50.915 26.887 -51 26 C-50.429 25.68 -49.858 25.359 -49.27 25.029 C-46.512 23.48 -43.756 21.927 -41 20.375 C-39.979 19.801 -38.957 19.227 -37.905 18.636 C-32.318 15.485 -26.77 12.284 -21.27 8.984 C-20.189 8.339 -19.108 7.694 -17.994 7.03 C-15.897 5.774 -13.805 4.508 -11.721 3.232 C-11.244 2.947 -11.244 2.947 -8.832 1.508 C-7.994 0.999 -7.156 0.49 -6.292 -0.035 C-4 -1 -4 -1 0 0 Z " fill="#000000" transform="translate(247,140)"/>
<path d="M0 0 C5.064 0.367 8.943 3.078 13.188 5.625 C14.865 6.617 16.544 7.608 18.223 8.598 C19.135 9.138 20.048 9.678 20.989 10.235 C24.31 12.182 27.65 14.092 30.996 15.996 C32.189 16.677 33.382 17.358 34.575 18.039 C36.347 19.05 38.12 20.06 39.896 21.065 C41.561 22.008 43.222 22.959 44.883 23.91 C45.846 24.458 46.809 25.006 47.801 25.571 C50 27 50 27 51 29 C46.999 38.346 40.358 45.352 33.396 52.539 C30.482 55.588 27.746 58.799 25 62 C20.125 57.375 20.125 57.375 19 54 C18.34 53.67 17.68 53.34 17 53 C15 52 15 52 14 49 C14.186 47.742 14.371 46.484 14.562 45.188 C15.108 41.287 14.798 38.596 13 35 C11.188 33.75 11.188 33.75 9 33 C8.092 32.629 7.185 32.257 6.25 31.875 C5.507 31.586 4.765 31.298 4 31 C4.516 31.887 5.031 32.774 5.562 33.688 C7.087 37.2 7.149 38.447 6 42 C3.614 41.424 1.333 40.778 -1 40 C-1.025 34.464 -1.043 28.928 -1.055 23.392 C-1.06 21.508 -1.067 19.623 -1.075 17.738 C-1.088 15.035 -1.093 12.332 -1.098 9.629 C-1.103 8.781 -1.108 7.933 -1.113 7.059 C-1.113 5.039 -1.062 3.019 -1 1 C-0.67 0.67 -0.34 0.34 0 0 Z " fill="#000000" transform="translate(254,139)"/>
<path d="M0 0 C5.109 1.976 9.83 4.429 14.625 7.062 C15.484 7.503 16.342 7.943 17.227 8.396 C21.792 10.933 24.314 12.62 25.836 17.746 C25.983 18.505 26.131 19.263 26.283 20.045 C26.519 20.69 26.756 21.335 27 22 C27.663 22.288 28.326 22.575 29.01 22.872 C29.666 23.244 30.323 23.616 31 24 C31.714 26.771 31.714 26.771 32.012 30.309 C32.129 31.604 32.247 32.899 32.368 34.233 C32.475 35.634 32.582 37.036 32.688 38.438 C32.808 39.865 32.929 41.293 33.052 42.72 C33.396 46.812 33.703 50.905 34 55 C34.073 55.985 34.147 56.971 34.223 57.986 C35.108 70.319 35.111 82.641 35 95 C33.521 95.027 32.042 95.046 30.562 95.062 C30.151 95.068 30.151 95.068 28.066 95.098 C26 95 26 95 25 94 C24.75 92.508 24.556 91.007 24.387 89.504 C24.275 88.562 24.164 87.62 24.05 86.65 C23.93 85.631 23.811 84.612 23.688 83.562 C20.738 59.954 14.17 37.943 5.427 15.844 C3.356 10.605 1.402 5.459 0 0 Z " fill="#000000" transform="translate(71,152)"/>
<path d="M0 0 C0.038 0.289 0.038 0.289 0.228 1.753 C3.022 22.982 3.022 22.982 6 32 C0.465 29.893 -4.542 27.035 -9.688 24.125 C-10.65 23.595 -11.612 23.065 -12.604 22.52 C-13.522 22 -14.44 21.481 -15.387 20.945 C-16.224 20.476 -17.062 20.007 -17.925 19.524 C-20.184 17.865 -20.988 16.581 -22 14 C-4.447 0 -4.447 0 0 0 Z " fill="#000000" transform="translate(134,152)"/>
<path d="M0 0 C7.421 4.201 14.815 8.402 22 13 C21.63 15.453 21.391 16.673 19.453 18.293 C18.797 18.659 18.141 19.025 17.465 19.402 C16.737 19.818 16.009 20.234 15.26 20.662 C14.493 21.083 13.727 21.504 12.938 21.938 C11.446 22.779 9.955 23.621 8.465 24.465 C7.727 24.877 6.99 25.29 6.23 25.714 C3.298 27.405 0.462 29.23 -2.369 31.084 C-4 32 -4 32 -6 32 C-5.818 31.45 -5.636 30.899 -5.449 30.332 C-2.458 20.437 -1.328 10.222 0 0 Z " fill="#000000" transform="translate(366,152)"/>
<path d="M0 0 C-0.621 3.629 -1.618 6.791 -3.039 10.184 C-3.451 11.182 -3.864 12.181 -4.288 13.209 C-4.729 14.275 -5.171 15.34 -5.625 16.438 C-15.387 40.526 -22.334 64.843 -24.641 90.809 C-25 94 -25 94 -26 95 C-27.519 95.072 -29.042 95.084 -30.562 95.062 C-30.976 95.058 -30.976 95.058 -33.066 95.035 C-33.385 95.029 -33.385 95.029 -35 95 C-35.385 78.969 -34.922 63.162 -33.625 47.188 C-33.562 46.382 -33.499 45.577 -33.433 44.747 C-33.249 42.428 -33.053 40.11 -32.852 37.793 C-32.824 37.451 -32.824 37.451 -32.684 35.719 C-32.271 31.233 -31.554 27.215 -30 23 C-29.01 22.67 -28.02 22.34 -27 22 C-26.44 20.182 -26.44 20.182 -26.004 17.879 C-23.984 11.238 -18.752 9.057 -12.938 5.938 C-11.918 5.358 -10.899 4.779 -9.85 4.182 C-2.4 0 -2.4 0 0 0 Z " fill="#000000" transform="translate(429,152)"/>
<path d="M0 0 C3.128 3.769 4.959 6.929 6.586 11.566 C6.808 12.193 7.031 12.819 7.26 13.465 C7.976 15.494 8.677 17.527 9.375 19.562 C9.866 20.978 10.357 22.394 10.848 23.81 C12.04 27.261 13.215 30.719 14.383 34.179 C14.925 35.779 15.476 37.377 16.028 38.974 C21.405 54.63 25.64 72.369 25 89 C23.315 90.685 21.212 90.13 18.906 90.133 C17.876 90.134 16.846 90.135 15.785 90.137 C15.243 90.135 15.243 90.135 12.5 90.125 C11.416 90.129 10.332 90.133 9.215 90.137 C8.185 90.135 7.155 90.134 6.094 90.133 C5.142 90.132 4.19 90.131 3.209 90.129 C1 90 1 90 0 89 C-0.095 86.231 -0.126 83.486 -0.114 80.717 C-0.114 79.848 -0.114 78.98 -0.114 78.086 C-0.113 75.202 -0.105 72.318 -0.098 69.434 C-0.096 67.44 -0.094 65.446 -0.093 63.452 C-0.09 58.193 -0.08 52.933 -0.069 47.674 C-0.058 42.312 -0.054 36.95 -0.049 31.588 C-0.038 21.059 -0.021 10.529 0 0 Z " fill="#000000" transform="translate(65,157)"/>
<path d="M0 0 C0.33 0 0.66 0 1 0 C1 29.37 1 58.74 1 89 C-6.92 89 -14.84 89 -23 89 C-23 57.732 -11.452 28.606 0 0 Z " fill="#000000" transform="translate(433,158)"/>
<path d="M0 0 C3.943 0.584 6.72 1.785 10.125 3.836 C11.079 4.406 12.033 4.975 13.016 5.562 C14 6.161 14.985 6.759 16 7.375 C16.492 7.67 16.492 7.67 18.984 9.164 C21.66 10.77 24.33 12.384 27 14 C27.865 14.415 28.729 14.831 29.62 15.259 C32 17 32 17 32.608 19.442 C32.6 20.409 32.592 21.377 32.583 22.374 C32.586 23.471 32.589 24.569 32.592 25.7 C32.569 26.884 32.547 28.069 32.523 29.289 C32.519 30.503 32.514 31.717 32.509 32.968 C32.488 36.854 32.431 40.739 32.375 44.625 C32.359 47.253 32.344 49.88 32.332 52.508 C32.298 57.3 32.263 62.093 32.193 66.885 C32.18 67.851 32.167 68.817 32.154 69.812 C32 72 32 72 31 73 C29.085 73.1 27.167 73.131 25.25 73.133 C24.085 73.134 22.919 73.135 21.719 73.137 C20.492 73.133 19.264 73.129 18 73.125 C17.386 73.127 17.386 73.127 14.281 73.137 C13.116 73.135 11.951 73.134 10.75 73.133 C9.672 73.132 8.595 73.131 7.484 73.129 C5 73 5 73 4 72 C3.792 69.17 3.644 66.358 3.535 63.523 C3.458 61.73 3.38 59.936 3.302 58.142 C3.263 57.199 3.224 56.256 3.184 55.285 C2.604 41.384 1.997 27.511 0.61 13.664 C0.151 9.077 -0.086 4.611 0 0 Z " fill="#000000" transform="translate(108,174)"/>
<path d="M0 0 C-0.452 7.55 -0.93 15.097 -1.477 22.641 C-2.428 35.864 -3.261 49.067 -3.658 62.32 C-3.69 63.29 -3.721 64.259 -3.754 65.258 C-3.778 66.105 -3.802 66.952 -3.826 67.825 C-4 70 -4 70 -5 73 C-13.91 73 -22.82 73 -32 73 C-32 54.52 -32 36.04 -32 17 C-19.187 9.625 -19.187 9.625 -15.157 7.307 C-14.633 7.005 -14.633 7.005 -11.98 5.477 C-11.444 5.168 -11.444 5.168 -8.727 3.604 C-2.599 0 -2.599 0 0 0 Z " fill="#000000" transform="translate(392,174)"/>
<path d="M0 0 C2.75 2.25 2.75 2.25 5 5 C7.272 7.419 9.265 9.173 12.062 11 C15.88 13.599 17.549 15.646 19 20 C19.592 26.043 18.298 30.048 15 35 C13.77 36.352 12.519 37.685 11.25 39 C8.579 41.87 7.542 43.544 7.562 47.5 C7.707 48.655 7.851 49.81 8 51 C8.44 51.133 8.44 51.133 10.668 51.805 C23.861 56.537 34.59 66.73 41 79 C47.645 94.371 48.114 110.343 42 126 C35.853 140.163 24.931 150.701 10.992 157.223 C-0.507 161.709 -10.66 160.417 -22 156 C-35.96 149.644 -45.201 137.77 -51.312 124.055 C-56.287 110.548 -55.846 94.131 -50 81 C-43.495 67.535 -32.784 56.872 -18.605 51.781 C-17.746 51.523 -16.886 51.266 -16 51 C-15.824 46.521 -15.779 42.974 -18 39 C-18.99 38.67 -19.98 38.34 -21 38 C-22.352 36.512 -22.352 36.512 -23.625 34.688 C-24.05 34.093 -24.476 33.499 -24.914 32.887 C-27.367 28.625 -27.614 23.819 -27 19 C-24.62 12.894 -21.882 11.109 -16.121 8.262 C-12.962 6.383 -11.794 4.158 -10 1 C-6.78 -0.61 -3.482 -0.604 0 0 Z " fill="#000000" transform="translate(254,185)"/>
<path d="M0 0 C7 6 7 6 9.352 8.168 C19.858 17.501 33.083 23.671 46 29 C45.67 29.66 45.34 30.32 45 31 C42.576 31.522 40.197 31.939 37.75 32.312 C25.361 34.443 15.396 38.97 5 46 C3.35 46.99 1.7 47.98 0 49 C0 32.83 0 16.66 0 0 Z " fill="#000000" transform="translate(146,195)"/>
<path d="M0 0 C0.66 0 1.32 0 2 0 C2 15.84 2 31.68 2 48 C-0.988 46.506 -3.423 45.077 -6.125 43.188 C-17.829 35.366 -30.306 31.833 -44 29 C-41.372 26.922 -38.862 25.346 -35.805 23.984 C-35.011 23.624 -34.218 23.264 -33.4 22.893 C-32.567 22.516 -31.734 22.138 -30.875 21.75 C-18.959 16.213 -9.324 9.324 0 0 Z " fill="#000000" transform="translate(352,196)"/>
<path d="M0 0 C1.024 0.371 2.047 0.743 3.102 1.125 C3.852 1.414 4.602 1.702 5.375 2 C0.423 6.952 -7.401 6.627 -14 7.312 C-32.124 9.408 -50.786 13.974 -62.84 28.707 C-77.739 48.812 -79.164 71.655 -76.625 96 C-79.409 93.216 -80.076 89.929 -81.188 86.25 C-81.298 85.898 -81.298 85.898 -81.857 84.117 C-87.461 65.902 -85.581 47.294 -76.777 30.469 C-67.941 15.457 -53.136 5.681 -36.625 1 C-33.329 0.297 -30.023 -0.215 -26.688 -0.688 C-25.858 -0.817 -25.028 -0.947 -24.174 -1.08 C-15.843 -2.303 -8.025 -2.986 0 0 Z " fill="#000000" transform="translate(215.625,232)"/>
<path d="M0 0 C2.731 1.912 5.286 3.909 7.816 6.078 C8.47 6.632 9.124 7.187 9.797 7.758 C21.639 18.685 27.806 34.47 29.07 50.246 C29.509 62.547 26.955 74.903 21.816 86.078 C20.416 82.115 20.981 78.24 21.316 74.141 C22.652 54.354 19.155 34.849 6.426 19.125 C-9.403 2.5 -31.203 -0.918 -52.977 -3.395 C-55.984 -3.889 -58.418 -4.667 -61.184 -5.922 C-60.184 -7.922 -60.184 -7.922 -58.25 -8.773 C-57.424 -9.029 -56.597 -9.284 -55.746 -9.547 C-54.943 -9.807 -54.14 -10.068 -53.312 -10.336 C-36.233 -13.534 -14.765 -8.914 0 0 Z " fill="#000000" transform="translate(340.18359375,240.921875)"/>
<path d="M0 0 C-3.475 3.532 -7.057 6.88 -10.75 10.188 C-21.222 19.724 -30.195 29.013 -33.812 43 C-36.579 51.437 -42.569 54.344 -50.066 58.207 C-52.684 59.496 -55.15 60.37 -58 61 C-58.43 44.787 -52.443 27.47 -41.375 15.438 C-30.703 5.758 -14.542 -0.561 0 0 Z " fill="#000000" transform="translate(201,245)"/>
<path d="M0 0 C15.607 1.001 32.399 5.543 43.23 17.625 C52.755 30.409 57.414 43.994 58 60 C57.01 60.33 56.02 60.66 55 61 C52.393 59.646 49.973 58.254 47.5 56.688 C46.823 56.27 46.146 55.853 45.449 55.424 C36.787 50.068 36.787 50.068 34.875 43.75 C33.045 38.149 30.653 33.312 27.438 28.375 C27.062 27.796 26.686 27.217 26.298 26.62 C24.602 24.096 22.878 21.878 20.723 19.727 C19 18 19 18 19 16 C18.453 15.771 17.907 15.541 17.344 15.305 C14.317 13.62 12.04 11.477 9.5 9.125 C8.562 8.261 7.623 7.398 6.656 6.508 C4.397 4.375 2.181 2.212 0 0 Z " fill="#000000" transform="translate(299,245)"/>
<path d="M0 0 C0.66 0.33 1.32 0.66 2 1 C1.636 1.45 1.273 1.9 0.898 2.363 C-2.079 6.173 -4.558 9.935 -6.75 14.25 C-9.058 18.654 -11.731 22.193 -15 25.938 C-25.222 37.882 -29.739 51.679 -29.281 67.41 C-28.058 83.017 -24.83 98.577 -18.25 112.859 C-17 116 -17 116 -18 119 C-27.047 105.491 -35.254 90.167 -38 74 C-38.128 73.291 -38.255 72.582 -38.387 71.852 C-40.842 55.718 -37.515 39.812 -28.184 26.387 C-20.137 15.934 -10.689 7.603 0 0 Z " fill="#000000" transform="translate(207,248)"/>
<path d="M0 0 C4.812 1.52 8.022 4.236 11.75 7.5 C12.368 8.039 12.985 8.578 13.622 9.133 C26.55 20.577 37.406 34.048 39.298 51.795 C39.436 54.621 39.468 57.421 39.438 60.25 C39.428 61.255 39.419 62.26 39.41 63.296 C38.948 83.316 29.916 101.568 19 118 C17.577 113.731 19.488 110.996 21.188 107.062 C30.137 85.347 33.87 60.135 24.75 37.961 C21.518 31.588 17.125 26.507 12.469 21.129 C9.186 16.969 6.861 12.646 4.473 7.91 C3.095 5.189 1.601 2.595 0 0 Z " fill="#000000" transform="translate(292,249)"/>
<path d="M0 0 C8.25 0 16.5 0 25 0 C24.399 20.645 19.847 40.562 13 60 C12.838 60.465 12.838 60.465 12.017 62.82 C10.981 65.78 9.932 68.735 8.875 71.688 C8.55 72.597 8.226 73.506 7.891 74.442 C5.92 79.837 3.666 84.911 1 90 C0.67 90 0.34 90 0 90 C0 60.3 0 30.6 0 0 Z " fill="#000000" transform="translate(65,253)"/>
<path d="M0 0 C3.3 0 6.6 0 10 0 C10.183 18.554 9.579 37.005 8.062 55.5 C7.988 56.449 7.913 57.398 7.836 58.376 C7.18 65.847 6.666 71.677 1 77 C0.656 77.911 0.312 78.823 -0.043 79.762 C-2.857 84.419 -6.674 86.202 -11.375 88.75 C-12.226 89.231 -13.077 89.712 -13.953 90.207 C-17.9 92.414 -21.773 94.378 -26 96 C-25.872 95.67 -25.872 95.67 -25.223 94 C-24.103 91.105 -22.994 88.207 -21.886 85.307 C-21.259 83.675 -20.628 82.045 -19.993 80.416 C-9.741 54.101 -2.343 28.23 0 0 Z " fill="#000000" transform="translate(96,253)"/>
<path d="M0 0 C0.521 0.003 0.521 0.003 3.158 0.016 C4.283 0.019 5.407 0.022 6.566 0.026 C7.75 0.034 8.934 0.042 10.154 0.051 C11.342 0.056 12.53 0.06 13.754 0.065 C16.7 0.077 19.646 0.093 22.592 0.114 C21.031 4.118 19.177 7.819 17.154 11.614 C9.178 27.361 8.206 46.041 12.592 63.114 C10.552 64.388 8.51 65.658 6.467 66.926 C5.897 67.282 5.327 67.639 4.74 68.006 C1.112 70.253 -2.565 72.262 -6.408 74.114 C-6.738 73.784 -7.068 73.454 -7.408 73.114 C-7.378 71.468 -7.273 69.824 -7.139 68.184 C-7.056 67.098 -6.972 66.012 -6.887 64.894 C-6.791 63.688 -6.695 62.481 -6.596 61.239 C-5.436 45.847 -4.738 30.445 -4.106 15.024 C-4.029 13.215 -3.951 11.407 -3.873 9.598 C-3.841 8.754 -3.809 7.911 -3.776 7.042 C-3.475 0.164 -3.475 0.164 0 0 Z " fill="#000000" transform="translate(115.408447265625,252.886474609375)"/>
<path d="M0 0 C8.25 0 16.5 0 25 0 C26.164 16.052 27.286 32.103 28.302 48.164 C28.828 56.446 29.397 64.723 30 73 C25.377 72.207 21.779 70.457 17.75 68.125 C17.113 67.773 16.476 67.421 15.82 67.059 C11.123 64.37 11.123 64.37 10 61 C10.249 59.219 10.573 57.448 10.938 55.688 C14.352 36.432 10.759 18.292 0 2 C0 1.34 0 0.68 0 0 Z " fill="#000000" transform="translate(362,253)"/>
<path d="M0 0 C3.3 0 6.6 0 10 0 C10.086 1.009 10.173 2.019 10.262 3.059 C12.146 23.237 16.478 42.364 22.875 61.562 C22.999 61.938 22.999 61.938 23.628 63.835 C27.184 74.495 31.34 84.776 36 95 C35.67 95.165 35.67 95.165 34 96 C30.194 94.268 26.654 92.01 23.062 89.875 C22.047 89.292 21.032 88.71 19.986 88.109 C19.012 87.534 18.039 86.96 17.035 86.367 C16.142 85.842 15.249 85.318 14.328 84.777 C11.096 82.31 9.664 79.452 8 75.812 C7 74 7 74 4 72 C2.748 66.79 2.481 61.333 2 56 C1.954 55.516 1.954 55.516 1.722 53.068 C0.079 35.333 -0.253 17.796 0 0 Z " fill="#000000" transform="translate(394,253)"/>
<path d="M0 0 C7.92 0 15.84 0 24 0 C24 29.37 24 58.74 24 89 C7.873 64.809 0.489 28.596 0 0 Z " fill="#000000" transform="translate(410,253)"/>
<path d="M0 0 C0.33 0 0.66 0 1 0 C1.013 0.527 1.013 0.527 1.078 3.191 C1.578 17.556 3.979 29.789 11.805 42.098 C13 45 13 45 12.516 47.848 C10.574 51.886 8.303 55.614 5.875 59.375 C5.407 60.111 4.939 60.847 4.457 61.605 C3.31 63.407 2.156 65.204 1 67 C-1.363 66.363 -1.363 66.363 -4 65 C-11.244 50.534 -11.999 30.552 -8.062 15.129 C-6.324 10.008 -3.896 3.896 0 0 Z " fill="#000000" transform="translate(193,281)"/>
<path d="M0 0 C8.388 7.914 10.262 18.151 10.898 29.328 C11.138 37.973 10.169 46.105 8.188 54.5 C8.035 55.171 7.882 55.842 7.724 56.533 C6.621 60.862 5.011 63.717 2 67 C-3.161 64.876 -4.766 60.948 -7.375 56.25 C-7.613 55.85 -7.613 55.85 -8.816 53.828 C-12.146 47.892 -12.146 47.892 -11.473 43.777 C-10.987 42.861 -10.501 41.944 -10 41 C-9.537 40.068 -9.074 39.136 -8.598 38.176 C-8.091 37.231 -7.584 36.286 -7.062 35.312 C-1.227 23.684 -0.408 12.797 0 0 Z " fill="#000000" transform="translate(306,281)"/>
<path d="M0 0 C14.057 6.824 14.057 6.824 18 10 C18 10.99 18 11.98 18 13 C16.272 14.35 16.272 14.35 13.879 15.699 C13.453 15.943 13.453 15.943 11.295 17.174 C10.844 17.424 10.844 17.424 8.562 18.688 C7.665 19.199 6.767 19.71 5.842 20.236 C-0.816 24 -0.816 24 -2 24 C-1.503 15.976 -0.98 7.982 0 0 Z " fill="#000000" transform="translate(338,303)"/>
<path d="M0 0 C0.338 3.062 0.669 6.125 1 9.188 C1.095 10.052 1.191 10.916 1.289 11.807 C1.727 15.888 2.136 19.888 2 24 C-2.639 22.36 -6.639 19.931 -10.812 17.375 C-11.505 16.955 -12.198 16.535 -12.912 16.102 C-14.61 15.071 -16.305 14.036 -18 13 C-17.631 10.534 -17.4 9.327 -15.434 7.72 C-14.775 7.364 -14.116 7.008 -13.438 6.641 C-12.723 6.247 -12.009 5.854 -11.273 5.449 C-10.523 5.053 -9.773 4.658 -9 4.25 C-8.25 3.839 -7.5 3.428 -6.727 3.004 C-1.198 0 -1.198 0 0 0 Z " fill="#000000" transform="translate(162,303)"/>
<path d="M0 0 C0.45 1.091 0.9 2.181 1.363 3.305 C4.977 11.858 8.931 20.081 13.688 28.062 C14.138 28.842 14.589 29.621 15.054 30.423 C18.327 35.763 18.327 35.763 21.832 36.996 C22.19 36.997 22.19 36.997 24 37 C22.465 30.299 20.641 23.797 18.375 17.312 C16.475 11.845 15.305 6.792 15 1 C18.695 2.951 22.349 4.969 26 7 C26.991 7.518 27.983 8.036 29.004 8.57 C36.645 12.874 38.962 16.983 42 25 C43.153 27.487 44.385 29.931 45.625 32.375 C46.195 33.517 46.765 34.659 47.352 35.836 C49 39 49 39 50.711 41.734 C52 44 52 44 52 46.875 C50.753 50.773 49.142 54.291 46 57 C43.203 57.969 43.203 57.969 40 58 C37.68 56.644 35.943 55.412 33.938 53.688 C32.784 52.748 31.631 51.809 30.477 50.871 C29.896 50.389 29.314 49.907 28.716 49.41 C26.133 47.288 23.472 45.273 20.812 43.25 C15.499 39.173 10.219 35.055 4.938 30.938 C-1.294 26.079 -7.565 21.283 -13.91 16.574 C-16.931 14.299 -16.931 14.299 -17.523 11.738 C-17 9 -17 9 -15.622 7.748 C-13.667 6.463 -11.676 5.312 -9.625 4.188 C-9.276 3.984 -9.276 3.984 -7.508 2.955 C-2.343 0 -2.343 0 0 0 Z " fill="#000000" transform="translate(130,322)"/>
<path d="M0 0 C2.272 1.123 4.543 2.248 6.812 3.375 C7.455 3.692 8.098 4.009 8.76 4.336 C11.632 5.765 14.327 7.218 17 9 C17.396 11.432 17.396 11.432 17 14 C15.617 15.646 15.617 15.646 13.66 17.094 C13.298 17.368 13.298 17.368 11.464 18.757 C10.671 19.332 9.879 19.907 9.062 20.5 C8.251 21.109 7.44 21.718 6.605 22.345 C4.913 23.614 3.216 24.877 1.515 26.135 C-2.296 28.961 -6.051 31.859 -9.812 34.75 C-11.214 35.821 -12.617 36.891 -14.02 37.961 C-17.134 40.337 -20.245 42.718 -23.35 45.107 C-24.94 46.329 -26.536 47.544 -28.133 48.758 C-29.98 50.203 -31.792 51.695 -33.555 53.242 C-39.071 58.015 -39.071 58.015 -43.75 57.938 C-47.936 55.442 -50.225 52.541 -52 48 C-52.561 43.685 -51.445 41.711 -48.938 38.25 C-46.627 34.878 -44.821 31.768 -43.574 27.891 C-39.688 15.919 -34.061 10.843 -22.976 5.005 C-20.324 3.656 -17.672 2.309 -15 1 C-15.547 8.185 -17.677 14.478 -20.062 21.25 C-20.809 23.378 -21.55 25.508 -22.285 27.641 C-22.614 28.574 -22.943 29.508 -23.281 30.47 C-24 33 -24 33 -24 37 C-21.77 36.91 -21.77 36.91 -19 36 C-17.307 33.808 -16.013 31.837 -14.688 29.438 C-14.307 28.775 -13.926 28.113 -13.533 27.43 C-8.527 18.606 -3.617 9.488 0 0 Z " fill="#000000" transform="translate(370,322)"/>
<path d="M0 0 C0.473 0.364 0.946 0.727 1.434 1.102 C11.026 8.394 20.036 14.486 31.789 17.613 C32.768 17.875 33.747 18.137 34.756 18.407 C35.497 18.603 36.237 18.799 37 19 C37.087 23.125 37.14 27.25 37.188 31.375 C37.213 32.551 37.238 33.726 37.264 34.938 C37.273 36.059 37.283 37.18 37.293 38.336 C37.309 39.373 37.324 40.41 37.341 41.478 C37.284 41.894 37.284 41.894 37 44 C36.01 44.66 35.02 45.32 34 46 C24.247 40.606 14.621 35.034 5.093 29.251 C-0.206 26.042 -5.563 22.969 -11 20 C-9.36 15.361 -6.931 11.361 -4.375 7.188 C-3.955 6.495 -3.535 5.802 -3.102 5.088 C-2.071 3.39 -1.036 1.695 0 0 Z " fill="#000000" transform="translate(210,332)"/>
<path d="M0 0 C3.208 2.763 5.116 6.308 7.188 9.938 C7.556 10.558 7.924 11.179 8.303 11.818 C10.265 15.237 11 16.965 11 21 C10.412 21.316 9.824 21.633 9.219 21.959 C-10.523 32.602 -10.523 32.602 -19.375 38 C-28.921 43.809 -28.921 43.809 -34 46 C-34.66 45.67 -35.32 45.34 -36 45 C-36 36.42 -36 27.84 -36 19 C-33.546 18.278 -31.091 17.556 -28.562 16.812 C-17.091 13.273 -9.135 7.837 0 0 Z " fill="#000000" transform="translate(289,332)"/>
<path d="M0 0 C1.03 -0.07 2.06 -0.139 3.121 -0.211 C7.169 0.086 8.951 1.818 12.062 4.375 C13.211 5.301 14.359 6.227 15.508 7.152 C15.798 7.39 15.798 7.39 17.267 8.593 C19.945 10.767 22.693 12.848 25.438 14.938 C27.054 16.182 28.669 17.429 30.284 18.676 C31.483 19.601 32.683 20.524 33.884 21.445 C35.802 22.916 37.714 24.395 39.625 25.875 C40.217 26.327 40.809 26.78 41.42 27.246 C44.447 29.601 46.779 31.89 49 35 C42.408 33.279 35.925 31.357 29.465 29.196 C11.269 23.134 -7.295 18.741 -26.219 15.641 C-29 15 -29 15 -31 13 C-27.355 10.61 -23.681 8.27 -20 5.938 C-18.97 5.261 -17.94 4.585 -16.879 3.889 C-10.588 -0.058 -7.262 -1.87 0 0 Z " fill="#000000" transform="translate(105,341)"/>
<path d="M0 0 C1.505 0.753 2.984 1.557 4.441 2.398 C5.272 2.878 6.103 3.358 6.959 3.852 C7.389 4.103 7.389 4.103 9.562 5.375 C10.426 5.87 11.289 6.365 12.178 6.875 C19.18 10.945 19.18 10.945 22 14 C20.361 15.639 18.302 15.541 16.051 15.91 C-6.479 19.753 -28.758 24.821 -50.152 33.005 C-55.705 35.098 -55.705 35.098 -59 34 C-50.864 27.45 -42.723 20.912 -34.398 14.602 C-31.867 12.681 -29.387 10.706 -26.914 8.711 C-25.505 7.599 -24.097 6.487 -22.688 5.375 C-22.042 4.841 -21.396 4.308 -20.731 3.758 C-15.918 0.011 -13.06 -0.447 -7 0 C-3.777 -1.074 -3.081 -1.05 0 0 Z " fill="#000000" transform="translate(404,341)"/>
<path d="M0 0 C3.482 1.322 6.683 2.85 9.922 4.688 C10.857 5.217 11.793 5.746 12.757 6.292 C13.745 6.855 14.732 7.419 15.75 8 C16.765 8.577 17.781 9.155 18.827 9.749 C25.173 13.365 31.506 17.004 37.812 20.688 C38.517 21.097 39.221 21.506 39.946 21.928 C46.647 25.871 46.647 25.871 47.938 30 C49 33 49 33 52 35 C52.372 37.215 52.372 37.215 52.363 39.938 C52.363 40.426 52.363 40.426 52.361 42.898 C52.345 43.922 52.329 44.945 52.312 46 C52.316 47.024 52.319 48.047 52.322 49.102 C52.267 56.733 52.267 56.733 50 59 C46.612 58.624 43.748 57.589 40.664 56.18 C39.855 55.813 39.046 55.446 38.212 55.068 C37.785 54.871 37.785 54.871 35.625 53.875 C35.18 53.672 35.18 53.672 32.929 52.647 C26.49 49.708 20.081 46.706 13.676 43.695 C8.974 41.507 4.216 39.445 -0.548 37.396 C-11.683 32.586 -11.683 32.586 -13.688 28.875 C-14.123 23.471 -11.961 20.382 -9 16 C-6.176 18.72 -3.549 21.482 -1.062 24.516 C-0.56 25.127 -0.057 25.738 0.461 26.367 C1.495 27.632 2.521 28.903 3.539 30.18 C7.372 34.799 7.372 34.799 10.875 35.922 C11.226 35.935 11.226 35.935 13 36 C12.525 30.499 11.125 26.94 8.25 22.25 C7.524 21.031 6.801 19.809 6.082 18.586 C5.905 18.285 5.905 18.285 5.01 16.765 C-1.289 5.761 -1.289 5.761 -0.621 1.695 C-0.416 1.136 -0.211 0.576 0 0 Z " fill="#000000" transform="translate(195,357)"/>
<path d="M0 0 C1.126 3.399 1.028 3.932 -0.441 7.504 C-1.136 8.863 -1.844 10.216 -2.562 11.562 C-2.927 12.271 -3.292 12.98 -3.668 13.71 C-6.292 18.777 -9.061 23.758 -11.969 28.668 C-13.13 31.294 -13.202 33.16 -13 36 C-8.362 35.544 -6.613 33.995 -3.625 30.5 C-2.855 29.605 -2.086 28.711 -1.293 27.789 C1.887 23.921 4.992 20.004 8 16 C10.713 19.165 13.002 21.907 14 26 C13.443 28.945 13.443 28.945 12 32 C9.172 33.868 9.172 33.868 5.535 35.445 C4.878 35.738 4.221 36.03 3.544 36.331 C1.392 37.283 -0.772 38.204 -2.938 39.125 C-4.428 39.775 -5.917 40.428 -7.405 41.082 C-10.443 42.415 -13.486 43.737 -16.532 45.052 C-20.732 46.873 -24.897 48.764 -29.055 50.68 C-30.295 51.248 -31.536 51.815 -32.778 52.382 C-35.095 53.443 -37.409 54.509 -39.72 55.583 C-40.758 56.05 -41.795 56.518 -42.863 57 C-43.763 57.413 -44.664 57.825 -45.591 58.25 C-48.222 59.069 -49.452 58.948 -52 58 C-52.116 54.25 -52.187 50.501 -52.25 46.75 C-52.284 45.687 -52.317 44.623 -52.352 43.527 C-52.364 42.503 -52.377 41.478 -52.391 40.422 C-52.412 39.479 -52.433 38.537 -52.454 37.565 C-51.866 34.243 -50.422 33.275 -48 31 C-47.669 30.153 -47.338 29.306 -46.997 28.434 C-45.799 25.51 -44.701 24.71 -42.047 23.055 C-41.241 22.55 -40.434 22.046 -39.604 21.526 C-35.209 18.95 -30.748 16.516 -26.25 14.125 C-18.751 10.097 -11.422 5.937 -4.266 1.328 C-2 0 -2 0 0 0 Z " fill="#000000" transform="translate(305,357)"/>
<path d="M0 0 C25.641 2.083 51.172 10.41 75.188 19.312 C75.618 19.469 75.618 19.469 77.795 20.261 C85.097 23.076 85.097 23.076 87 27 C87.129 33.459 84.044 39.056 80 44 C78.118 44.729 78.118 44.729 76 45 C73.24 43.732 70.733 42.408 68.125 40.875 C67.335 40.423 66.546 39.972 65.732 39.507 C63.146 38.02 60.572 36.513 58 35 C57.15 34.501 56.3 34.002 55.425 33.488 C51.867 31.395 48.313 29.296 44.765 27.187 C36.224 22.111 27.622 17.146 19.006 12.2 C14.069 9.363 9.138 6.515 4.234 3.621 C3.417 3.14 2.599 2.658 1.757 2.162 C1.177 1.778 0.597 1.395 0 1 C0 0.67 0 0.34 0 0 Z " fill="#000000" transform="translate(80,363)"/>
<path d="M0 0 C-3.429 2.865 -6.879 5.206 -10.77 7.398 C-11.894 8.036 -13.018 8.673 -14.176 9.329 C-14.769 9.663 -15.361 9.996 -15.971 10.339 C-19.127 12.114 -22.274 13.904 -25.422 15.691 C-26.061 16.054 -26.7 16.416 -27.358 16.789 C-33.454 20.249 -39.512 23.773 -45.562 27.312 C-46.048 27.595 -46.048 27.595 -48.506 29.027 C-53.214 31.772 -57.906 34.539 -62.574 37.352 C-63.449 37.873 -64.325 38.395 -65.226 38.932 C-66.862 39.908 -68.492 40.893 -70.115 41.89 C-70.835 42.317 -71.555 42.744 -72.297 43.184 C-72.919 43.561 -73.541 43.938 -74.183 44.326 C-76.54 45.2 -77.691 44.938 -80 44 C-83.788 39.206 -86.695 34.132 -87.562 28.062 C-84.053 21.184 -73.177 18.714 -66.188 16.188 C-65.26 15.852 -64.333 15.517 -63.378 15.171 C-47.307 9.508 -30.72 5.074 -14.062 1.5 C-13.318 1.34 -12.574 1.18 -11.808 1.015 C-7.816 0.209 -4.07 -0.153 0 0 Z " fill="#000000" transform="translate(420,363)"/>
<path d="M0 0 C1.891 1.82 1.891 1.82 3.25 4.125 C3.732 4.931 4.214 5.736 4.711 6.566 C6.349 9.659 7.748 12.731 9 16 C1.686 21.1 -5.988 25.505 -13.75 29.875 C-21.877 34.456 -29.902 39.141 -37.831 44.063 C-42.918 47.172 -48.11 50.088 -53.312 53 C-53.832 53.292 -53.832 53.292 -56.459 54.77 C-58.971 56.182 -61.485 57.592 -64 59 C-64 54.574 -61.339 52.009 -58.75 48.625 C-58.211 47.914 -57.672 47.203 -57.116 46.47 C-51.816 39.586 -46.055 33.223 -40 27 C-39.184 26.156 -38.368 25.311 -37.527 24.441 C-32.882 19.717 -28.131 15.193 -23 11 C-22.407 10.51 -21.814 10.019 -21.203 9.514 C-19.133 7.819 -17.039 6.157 -14.938 4.5 C-14.265 3.947 -13.592 3.393 -12.898 2.823 C-8.41 -0.644 -5.714 -1.963 0 0 Z " fill="#000000" transform="translate(327,396)"/>
<path d="M0 0 C0.614 0.493 1.227 0.986 1.859 1.495 C7.957 6.45 13.766 11.689 19.438 17.125 C19.967 17.628 20.497 18.13 21.043 18.648 C29.351 26.564 36.552 34.955 43.438 44.125 C44.103 44.98 44.768 45.834 45.453 46.715 C49.438 51.863 49.438 51.863 49.438 54.125 C45.998 52.817 42.824 51.318 39.621 49.508 C38.703 48.99 37.784 48.472 36.838 47.938 C35.86 47.381 34.882 46.824 33.875 46.25 C33.363 45.96 33.363 45.96 30.773 44.49 C23.49 40.339 16.273 36.088 9.11 31.735 C4.418 28.889 -0.305 26.116 -5.074 23.402 C-6.173 22.774 -7.272 22.145 -8.405 21.498 C-10.555 20.271 -12.71 19.053 -14.871 17.844 C-15.844 17.287 -16.817 16.73 -17.82 16.156 C-18.688 15.667 -19.556 15.178 -20.45 14.674 C-22.78 12.965 -23.721 11.883 -24.562 9.125 C-23.502 6.496 -22.436 4.345 -21 1.938 C-20.651 1.296 -20.303 0.655 -19.943 -0.006 C-18.304 -2.834 -17.184 -4.626 -14.098 -5.863 C-7.983 -5.892 -4.662 -3.813 0 0 Z " fill="#000000" transform="translate(188.5625,400.875)"/>
<path d="M0 0 C0.66 0.33 1.32 0.66 2 1 C-2 5 -6 9 -10 13 C-10.722 13.763 -11.444 14.526 -12.188 15.312 C-14 17 -14 17 -16 17 C-16.12 17.281 -16.12 17.281 -16.727 18.703 C-18.271 21.489 -20.168 23.451 -22.375 25.75 C-27.328 31.085 -31.682 36.731 -35.976 42.604 C-36.217 42.933 -36.217 42.933 -37.434 44.594 C-37.857 45.178 -38.28 45.763 -38.717 46.365 C-40.037 48.047 -41.46 49.52 -43 51 C-43.116 47.104 -43.187 43.209 -43.25 39.312 C-43.284 38.21 -43.317 37.107 -43.352 35.971 C-43.451 27.73 -43.451 27.73 -41.172 24.043 C-40.455 23.369 -39.738 22.695 -39 22 C-38.801 21.581 -38.801 21.581 -37.797 19.461 C-35.062 15.716 -31.426 14.453 -27.25 12.625 C-26.408 12.242 -25.567 11.859 -24.699 11.465 C-22.975 10.681 -21.248 9.902 -19.518 9.13 C-15.804 7.463 -12.122 5.731 -8.438 4 C-7.228 3.437 -6.018 2.875 -4.809 2.312 C-3.197 1.56 -1.591 0.795 0 0 Z " fill="#000000" transform="translate(296,404)"/>
<path d="M0 0 C8.097 1.136 15.673 5.566 23 9 C23.733 9.34 24.467 9.68 25.222 10.031 C33.116 13.745 39.217 16.706 43 25 C43.33 25.33 43.66 25.66 44 26 C44.087 27.708 44.107 29.419 44.098 31.129 C44.094 32.163 44.091 33.198 44.088 34.264 C44.084 34.808 44.084 34.808 44.062 37.562 C44.058 38.655 44.053 39.747 44.049 40.873 C44.037 43.582 44.021 46.291 44 49 C43.34 49 42.68 49 42 49 C40.678 47.462 40.678 47.462 39.164 45.301 C38.882 44.905 38.882 44.905 37.456 42.904 C36.851 42.049 36.247 41.194 35.625 40.312 C30.374 33.022 24.898 26.272 18.68 19.797 C16.287 17.299 14.008 14.744 11.75 12.125 C8.58 8.515 5.162 5.381 1.469 2.312 C0.984 1.879 0.499 1.446 0 1 C0 0.67 0 0.34 0 0 Z " fill="#000000" transform="translate(203,405)"/>
</svg>
