<?xml version="1.0" encoding="UTF-8"?>
<svg version="1.1" style="background:transparent" xmlns="http://www.w3.org/2000/svg" width="500" height="500" viewBox="0 0 500 500">
<g fill="#FF2D78">
<path d="M235.5 29.5C231.2 35.9 229.7 41.2 229 54.4C228.4 66.2 228 67.8 224.7 68.9C217.7 71.1 211.7 75.8 204.5 84.7L197.2 93.9L186.6 87.4C180.8 83.9 174.8 80.7 173.2 80.4C171.1 80 168.7 82.1 162.7 89.7C158.3 95.3 150.9 103.3 146.3 107.5L137.9 115.2L131 111.1C117.2 103.1 95.1 94 91.7 95.4C87 97.2 52.1 134 50.8 138.6C49.3 144 58 166 70.1 187.5L79.1 203.4L72.7 209.4C55.5 225.5 29 260.5 29 267C29 271.9 57.1 310.7 71.2 324.5L79.8 332.9L74.9 340.5C66.2 354.1 54 378.1 54 381.7C54 388 93.9 426.9 100.3 426.9C102.8 426.9 112.3 423.3 121.4 418.8C130.6 414.4 139.5 410 141.2 409.1C143.7 407.8 145.9 409.4 154.8 420.5C160.6 427.7 168.4 435.9 172.1 438.7L178.9 443.8L188.9 438.2C194.4 435.1 200.5 431.7 202.5 430.7C205.3 429.3 207.8 431.1 215.7 439.1C227.4 451.1 233.2 464.4 233.8 481.5L234.3 494.5H265.6L266.1 481.5C266.7 464.7 272.5 451.3 283.4 440.2C287.6 435.9 291.7 432 292.5 431.6C293.2 431.2 299.3 434.1 306 438.1L318.2 445.3L325.7 439.5C329.8 436.4 337.3 428.2 342.3 421.4C349.3 412 351.7 409.5 354.1 410.4C355.8 411 364.9 415.3 374.3 420C383.6 424.6 392.7 428.1 394.5 427.8C399.6 427 443.7 382.8 443.7 378.1C443.7 374.9 434.8 356.4 426.3 342.1L420.9 333L432.1 321.3C445.2 307.6 471 272 471 267.5C471 261.8 448.6 232.7 431.7 216.7L421 206.5L430.4 190.1C441 171.5 450 149.4 450 143C450 138.5 412.3 98 406.9 95.8C404.6 94.9 395.5 98.4 383.6 104.3L364.9 113.5L358 106.7C354.2 103 346.9 95.1 341.9 89.1C336.9 83.2 331.7 78.3 330.5 78.2C329.3 78.1 323.3 81.1 317 85L305.6 92.2L299.9 84.7C292.4 74.8 281.8 67.2 275.6 66.3C271.9 65.8 271.7 65.2 271 53.1C270.2 38.4 266.6 28.3 261.1 25.4C258.6 24 255.4 23.5 250 23.5C241.9 23.5 239.2 24.1 235.5 29.5ZM257.3 41.7C260.4 47.6 261 51 261 64.3V80.1L267.8 81.9C280.2 85.3 290.7 93.9 302.1 109.4C305.1 113.4 308.4 116.9 309.5 117.1C310.6 117.3 316.6 114.2 322.8 110.2C329 106.2 334.7 103.1 335.4 103.3C336.2 103.5 341.7 109.4 347.6 116.5L358.3 129.4L377.8 119.5L397.2 109.6L409.4 121.8L421.6 134L412.4 152.7C407.4 163 402.6 173.6 401.7 176.1C400.4 179.6 401.7 181.8 410.6 190.6C416.4 196.4 425.7 206.8 431.2 213.6L441.2 226L426.7 241.2C418.8 249.5 410.9 258.6 409.2 261.5L406.2 266.8L419.3 279.6C426.5 286.6 436.1 296.8 440.5 302.2L448.5 312L437.4 326.8C431.3 334.9 423.1 346.7 419.2 352.9L412.1 364.3L421.1 383.1L430.1 401.9L417.7 414.3L405.3 426.7L386.7 417.6C376.4 412.6 365.8 407.8 363.3 406.9C359.8 405.6 357.7 406.8 349.1 415.6C343.4 421.5 333.2 430.8 326.5 436.2L314.3 446.2L301.1 433.5C293.8 426.6 284.7 418.5 280.9 415.6L273.9 410.3L266.9 415.7C263.1 418.7 254.1 426.8 246.8 433.8L233.6 446.4L221.5 436.6C214.9 431.1 204.7 421.9 198.8 416.1C189.8 407.2 187.6 405.9 184.1 407.3C181.6 408.2 171.1 412.9 160.8 417.8L142.1 426.7L129.8 414.4L117.5 402.1L126.5 383.6L135.4 365L129.8 356.8C126.7 352.3 118.8 341.3 112.2 332.4L100.1 316.2L114.1 302.4C121.8 294.8 131.6 284.8 135.8 280.1L143.4 271.6L139.8 265.5C136.7 260.2 122.9 244.1 99 220.4L91 212.4L100.9 199.9C106.4 193 115.8 182.8 121.8 177.3C130.7 169 132.4 166.9 131.7 164.4C131.2 162.7 126.4 152.2 121 141L111.3 120.6L123.7 108.2L136.1 95.8L154.8 105.1L173.5 114.3L184.1 101.3C189.9 94.1 197.8 85.8 201.6 82.8L208.5 77.3L220.6 89.3C232.4 101.2 235.9 103.6 241.2 103.7C243.4 103.7 243.5 103.4 243.5 94.3C243.5 81.5 245.3 59.8 246.4 53.4C247.4 47.4 251.3 37.5 253.2 37.5C253.9 37.5 255.8 39.4 257.3 41.7Z"/>
</g>
</svg>
